<?xml version="1.0" encoding="utf-8"?>
<!DOCTYPE svg PUBLIC "-//W3C//DTD SVG 1.0//EN" "http://www.w3.org/TR/2001/REC-SVG-20010904/DTD/svg10.dtd">
<svg version="1.0" xmlns="http://www.w3.org/2000/svg" width="310px" height="282px" viewBox="0 0 310 282" preserveAspectRatio="xMidYMid meet">
 <g fill="#ffffff">
  <path d="M229 281.9 c0 -0.3 0.6 -1.9 1.4 -3.5 5.7 -11.4 27.5 -59.9 27.1 -60.2 -0.5 -0.6 -23.9 -7.2 -34.8 -9.9 -3.7 -0.9 -6.6 -2 -6.5 -2.4 0.5 -1.2 72.2 -80.9 72.5 -80.6 0.2 0.3 -4.4 10.7 -17.9 39.7 -7.7 16.5 -9.8 21.3 -9.5 21.6 0.2 0.2 10.6 3.1 23.3 6.5 12.6 3.4 23.4 6.4 24 6.8 0.7 0.3 -15.4 17.4 -39.2 41.6 -22.2 22.6 -40.3 40.7 -40.4 40.4z"/>
  <path d="M125 267.8 c-17.9 -1.1 -32.3 -4.9 -48.8 -13 -33.1 -16.1 -57.7 -44.4 -69.1 -79.3 -4.9 -15.1 -6.4 -27.3 -5.8 -45.9 0.7 -22.8 4.5 -37.8 14.9 -57.7 23.7 -45.7 73 -74 124.3 -71.5 14.9 0.7 23.1 2.2 36.5 6.5 32.5 10.5 60.9 34.4 76.9 65 8.9 17.2 15.1 39.7 15.1 55.3 l0 6.7 -32.1 35.8 c-17.7 19.7 -33.1 36.8 -34.2 38 -1.1 1.3 -1.8 2.5 -1.6 2.7 0.3 0.3 8.4 2.7 18.2 5.3 9.7 2.6 17.7 5.2 17.7 5.7 0 2.1 -17.9 18.1 -27 24.1 -25.6 17.1 -53.2 24.3 -85 22.3z m9.3 -63 l2.9 -11.8 4.2 0.8 c2.2 0.4 9.1 0.7 15.1 0.7 8.9 -0.1 11.9 -0.5 15.6 -2.2 9.2 -4.2 15.4 -12 18.5 -23.8 3.4 -12.4 -0.1 -22.3 -9.9 -28.8 l-3.8 -2.5 4.6 -2.2 c11.8 -5.7 17.1 -22.5 10.9 -34.9 -3.3 -6.5 -9.5 -11.6 -19.8 -16.1 -5.4 -2.4 -7.5 -3.8 -7.1 -4.8 0.7 -2 5.5 -20.9 5.5 -21.9 0 -1 -13.8 -4.6 -14.9 -3.9 -0.4 0.3 -1.8 5 -3.1 10.5 -1.3 5.5 -2.7 10.6 -3.1 11.2 -0.5 0.9 -1.9 0.9 -5.8 -0.1 -2.8 -0.6 -5.1 -1.5 -5.1 -1.8 0 -0.4 1.3 -5.7 2.9 -11.9 2.6 -10.1 2.7 -11.3 1.2 -11.7 -0.9 -0.3 -3.6 -1 -6.1 -1.6 -2.5 -0.6 -5.2 -1.3 -6.1 -1.6 -1.4 -0.4 -2.2 1.6 -4.4 10.8 -1.5 6.2 -3.1 11.7 -3.5 12.1 -0.6 0.7 -18.5 -3.1 -28.1 -5.9 -1.2 -0.3 -1.9 1.2 -3.3 6.8 -1 4 -1.9 7.7 -2 8.1 0 0.5 3.3 1.9 7.4 3 11.9 3.5 11.8 1.3 2 40.8 -4.5 18.4 -8.9 34.4 -9.6 35.7 -1.7 2.6 -5 2.8 -11.8 0.8 l-4.6 -1.4 -1.4 3.1 c-0.7 1.8 -2.3 5.6 -3.6 8.5 -1.2 2.9 -2 5.5 -1.7 5.8 0.3 0.3 6.8 2.2 14.4 4.1 7.6 1.9 13.9 3.6 14.1 3.8 0.2 0.1 -1.1 5.6 -2.7 12.1 -1.6 6.5 -2.8 12 -2.6 12.2 0.2 0.2 3.5 1.2 7.5 2.2 l7.1 1.8 0.8 -2.1 c0.5 -1.2 1.9 -6.6 3.2 -11.9 1.2 -5.4 2.8 -9.8 3.3 -9.8 0.6 0 3.2 0.6 5.7 1.3 l4.6 1.2 -2.8 11 c-1.6 6.1 -2.9 11.5 -2.9 12.1 0 1.3 10.2 4.3 13.5 4.1 1.6 -0.2 2.4 -2.1 4.8 -11.9z"/>
  <path d="M127 170.9 c-5.2 -1.1 -9.9 -2.4 -10.4 -2.9 -0.6 -0.6 5.7 -30.2 6.9 -31.7 0.3 -0.6 19.2 4.9 23.4 6.8 10.3 4.5 14.8 10.6 13.6 18 -1.9 10.9 -12.8 14.1 -33.5 9.8z"/>
  <path d="M144 124.4 c-1.4 -0.3 -5.7 -1.2 -9.6 -2 l-7.1 -1.5 3.5 -14.2 c1.9 -7.8 3.6 -14.3 3.7 -14.5 0.5 -0.6 16.6 3.8 19.7 5.4 7.8 4 10.7 7.7 10.8 13.7 0 4.9 -2.3 9.3 -5.9 11.1 -3.1 1.6 -11.2 2.7 -15.1 2z"/>
 </g>
</svg>
