<svg xmlns="http://www.w3.org/2000/svg" width="540px" height="540px" viewBox="0 0 5400 5400" preserveAspectRatio="xMidYMid meet"><g fill="#37353e"><path d="M1335 5390 c5 -8 78 -116 164 -240 302 -439 528 -768 656 -958 208 -308 402 -593 533 -786 67 -99 120 -181 119 -183 -6 -5 -460 229 -548 283 -129 80 -219 175 -314 335 -20 34 -20 34 -23 -55 -3 -104 16 -176 69 -252 33 -48 33 -48 -15 -13 -62 44 -183 167 -241 244 -97 130 -163 291 -184 450 -7 49 -13 91 -15 92 -1 1 -21 -7 -45 -19 -50 -25 -141 -105 -160 -142 -22 -39 -31 -31 -31 26 0 210 164 449 338 493 46 12 46 12 22 26 -14 7 -52 13 -85 14 -190 1 -389 -223 -452 -509 -21 -94 -20 -286 2 -390 33 -157 99 -283 208 -393 34 -35 65 -63 68 -63 4 0 -5 26 -21 58 -65 131 -83 312 -42 424 23 65 89 178 103 178 5 0 9 -18 9 -39 0 -110 56 -272 133 -388 109 -163 213 -247 537 -434 184 -106 759 -443 955 -560 90 -54 90 -54 52 -57 -39 -3 -603 28 -947 53 -310 22 -395 27 -390 22 3 -2 91 -43 195 -92 105 -48 377 -176 605 -283 388 -182 435 -202 720 -297 305 -103 450 -160 450 -177 0 -5 5 -6 10 -3 6 3 10 1 10 -4 0 -6 5 -11 10 -11 6 0 10 13 10 30 0 20 -24 67 -75 146 -42 64 -75 118 -73 119 7 7 177 -126 250 -194 220 -206 339 -472 263 -587 -28 -43 -98 -68 -171 -60 -74 8 -173 39 -223 70 -20 13 -54 26 -76 30 -49 9 -61 19 -86 67 -24 48 -24 112 1 167 19 42 19 42 -13 43 -130 4 -207 -34 -252 -124 -42 -85 -29 -167 38 -243 91 -103 290 -154 612 -157 152 -1 175 1 215 20 81 37 109 91 110 214 0 100 -14 170 -50 247 -37 79 -88 146 -347 458 -185 224 -683 821 -735 882 -11 13 -17 26 -14 29 3 3 65 -15 138 -40 73 -26 275 -96 449 -156 409 -142 563 -203 635 -249 146 -95 282 -304 348 -537 14 -50 14 -50 15 50 2 199 -44 388 -143 588 -57 116 -46 117 32 3 97 -142 162 -286 208 -460 24 -91 24 -91 20 69 -5 178 -20 258 -96 485 -137 410 -312 737 -512 955 -27 30 -46 55 -41 55 16 0 174 -102 259 -167 102 -78 236 -202 308 -284 66 -74 159 -209 181 -263 9 -21 18 -37 19 -35 7 8 -15 137 -35 204 -27 91 -102 234 -172 327 -70 93 -236 254 -350 339 -216 161 -393 253 -1178 610 -305 138 -585 267 -623 286 -37 19 -70 32 -72 30 -5 -4 439 -299 886 -589 445 -288 492 -320 537 -375 129 -156 216 -338 259 -543 19 -93 32 -495 16 -489 -10 4 -171 151 -877 800 -111 101 -300 274 -420 383 -121 110 -249 227 -285 260 -36 34 -193 178 -350 321 -156 143 -321 294 -365 335 -161 148 -511 474 -574 534 -35 34 -60 54 -56 46z"/><path d="M1441 2649 c-164 -110 -261 -289 -261 -484 0 -160 42 -256 168 -387 118 -122 194 -177 347 -253 159 -79 325 -134 1335 -442 306 -93 280 -83 252 -94 -43 -16 -238 -50 -367 -62 -130 -13 -130 -13 -40 -30 159 -30 293 -40 470 -34 190 6 288 24 426 79 95 37 103 30 -76 62 -232 42 -363 126 -416 266 -10 28 -19 69 -19 93 0 77 61 172 149 230 26 18 28 16 -44 35 -75 20 -140 23 -217 9 -64 -11 -100 -11 -206 -1 -71 7 -159 20 -196 28 -114 27 -160 22 -313 -34 -169 -61 -234 -74 -340 -66 -259 21 -543 184 -698 401 -63 88 -77 128 -77 214 1 171 48 322 137 439 30 39 54 72 51 72 -2 0 -31 -18 -65 -41z"/><path d="M590 2513 c-118 -92 -167 -161 -191 -269 -10 -42 -10 -66 0 -109 12 -55 12 -55 119 -110 59 -30 143 -83 187 -119 81 -65 269 -253 538 -539 175 -185 245 -235 502 -362 348 -171 687 -258 1110 -285 227 -14 238 -12 80 20 -156 31 -295 75 -460 145 -122 51 -439 213 -543 277 -37 22 -71 43 -76 46 -23 13 18 -36 98 -118 48 -49 86 -90 83 -90 -25 0 -290 185 -462 323 -142 114 -529 504 -591 597 -69 102 -78 128 -72 205 5 61 4 65 -21 81 -14 9 -52 44 -84 78 -45 46 -57 55 -52 36 9 -29 9 -75 0 -90 -14 -22 -47 -8 -102 44 -32 30 -55 57 -52 60 3 4 36 9 72 13 65 6 65 6 16 70 -49 65 -66 103 -54 122 9 16 5 13 -45 -26z m186 -426 c3 -3 -7 -28 -22 -55 -28 -49 -28 -49 -93 1 -36 28 -70 55 -76 60 -6 6 27 8 88 5 54 -3 100 -8 103 -11z"/><path d="M3840 2510 c0 -5 4 -11 9 -15 16 -9 471 -604 536 -700 39 -57 70 -117 84 -163 33 -103 26 -226 -29 -467 -50 -216 -61 -324 -36 -344 13 -11 24 -12 43 -5 25 8 29 19 53 134 15 69 44 179 64 245 33 105 39 136 43 250 10 242 -42 403 -189 586 -27 32 -48 61 -48 64 0 8 106 -28 163 -56 31 -15 57 -25 57 -22 0 24 -239 332 -271 348 -31 17 -62 27 -244 83 -202 63 -235 72 -235 62z"/><path d="M2075 2024 c-203 -72 -259 -85 -312 -74 -24 6 -71 24 -104 40 -32 17 -59 28 -59 25 0 -3 32 -41 71 -86 76 -86 195 -186 260 -220 39 -19 39 -19 39 40 0 33 5 72 11 88 11 28 11 28 26 -7 19 -45 27 -50 91 -50 59 0 62 -6 37 -67 -26 -62 -19 -66 103 -60 85 4 130 12 221 41 119 38 189 44 281 26 25 -4 47 -6 49 -4 8 8 -129 141 -214 210 -114 93 -206 136 -297 141 -66 3 -85 -1 -203 -43z"/></g><g fill="#d77c56"><path d="M1986 4882 c101 -94 449 -409 554 -502 305 -271 1168 -1052 1295 -1171 33 -31 75 -69 93 -84 33 -27 33 -27 27 41 -24 266 -92 479 -171 540 -22 17 -88 63 -149 104 -60 40 -256 173 -435 294 -690 467 -1237 827 -1256 826 -5 -1 14 -22 42 -48z"/><path d="M1623 4581 c-85 -29 -163 -104 -217 -208 -9 -18 -16 -34 -16 -37 0 -3 25 6 55 20 30 14 73 26 96 27 43 2 43 2 55 -95 16 -122 45 -230 88 -323 36 -78 134 -230 143 -221 3 3 9 26 14 52 10 55 47 138 77 174 20 25 20 25 42 -24 73 -170 199 -314 345 -394 64 -36 250 -122 262 -122 17 0 -107 191 -323 497 -43 62 -167 239 -274 393 -195 280 -195 280 -245 280 -27 -1 -73 -9 -102 -19z"/><path d="M1130 3043 c-80 -14 -98 -24 -123 -66 -14 -23 -90 -105 -169 -182 -96 -93 -158 -163 -186 -207 -50 -82 -42 -88 13 -11 53 74 144 149 230 189 306 142 409 182 502 190 128 11 284 -40 607 -199 98 -48 180 -86 182 -84 14 14 -433 253 -556 298 -135 49 -406 88 -500 72z"/><path d="M3510 2166 c0 -3 31 -49 69 -103 111 -158 192 -293 185 -306 -4 -7 -4 -9 0 -5 12 10 82 -76 96 -118 18 -54 8 -148 -19 -185 -18 -24 -20 -33 -10 -45 21 -26 116 -47 183 -40 61 6 61 6 36 -14 -66 -54 -100 -65 -210 -65 -58 0 -120 3 -139 8 -35 7 -35 7 -12 -17 61 -65 194 -109 331 -110 105 -1 146 13 177 61 27 42 24 188 -6 273 -73 208 -286 433 -571 605 -36 21 -75 45 -87 53 -13 8 -23 12 -23 8z"/><path d="M523 2118 c-26 -13 -29 -23 -10 -31 8 -3 59 -40 115 -82 56 -42 106 -74 111 -71 10 6 82 129 93 158 9 23 -17 29 -162 34 -83 3 -133 0 -147 -8z"/><path d="M3950 844 c-193 -97 -418 -164 -553 -164 -59 0 -53 -9 23 -35 271 -91 474 -304 539 -565 18 -75 18 -75 27 -35 17 78 9 361 -14 519 -13 82 -20 157 -17 167 12 36 88 62 138 48 53 -14 68 -40 93 -156 44 -202 86 -374 90 -371 2 2 13 52 24 109 23 118 53 213 99 308 30 65 30 65 -20 82 -59 21 -165 78 -232 125 -26 19 -53 33 -60 33 -6 -1 -68 -30 -137 -65z"/></g></svg>